<?xml version="1.0" encoding="iso-8859-1"?>
<!-- Generator: Adobe Illustrator 19.0.0, SVG Export Plug-In . SVG Version: 6.00 Build 0)  -->
<svg version="1.1" id="Layer_1" xmlns="http://www.w3.org/2000/svg" xmlns:xlink="http://www.w3.org/1999/xlink" x="0px" y="0px"
	 viewBox="0 0 512.001 512.001" style="enable-background:new 0 0 512.001 512.001;" xml:space="preserve">
<path style="fill:#585661;" d="M379.872,189.683c-7.581-22.742-45.896-45.484-81.41-49.062c-3.476-0.35-5.653,3.645-3.522,6.412
	c6.945,9.023,17.084,25.59,13.349,41.74L379.872,189.683z"/>
<path style="fill:#CFCAC4;" d="M74.323,280.481c-23.398,0-52.302,4.818-74.323,16.516c0,0,42.666,16.516,74.323,16.516
	c2.065,0-2.065,36.514,16.516,57.848c1.278,1.468,14.452-44.69,8.258-74.281c0,0,94.355-40.224,165.162-16.599
	c123.871,41.332,174.905,0.532,222.968,8.299c17.032,2.753,24.774,0,24.774-8.258c0-5.334,0-8.258-27.093-22.905l-47.23-26.644
	l-280.775,8.258L74.323,280.481z"/>
<path style="fill:#6B676E;" d="M74.323,280.522v16.557c97.726-71.666,221.135-61.118,289.159-49.417
	c-24.456,0.93-45.275,5.499-73.674,2.486c-4.82-0.512-7.022,5.779-2.944,8.396c21.626,13.887,65.639,31.966,117.783-2.796
	c41.29,8.258,41.29-16.516,57.807-8.299c0,0,10.891,4.254,22.456,10.169C436.888,125.875,163.717,191.127,74.323,280.522z"/>
<g>
	<circle style="fill:#585661;" cx="434.582" cy="242.323" r="8.258"/>
	<path style="fill:#585661;" d="M0,296.997c0,0,42.666,16.516,74.323,16.516c2.065,0-2.065,36.514,16.516,57.848
		c1.278,1.468,26.091-37.429,16.516-66.106c-8.258-24.733-33.032-24.774-33.032-24.774C50.924,280.481,22.021,285.298,0,296.997z"/>
</g>
<path style="fill:#B6B1AE;" d="M494.508,289.621c0.966,0.07,1.905,0.123,2.786,0.141c0.726,0.014,1.416,0.006,2.085-0.017
	c0.622-0.019,1.208-0.059,1.783-0.107c0.733-0.065,1.462-0.134,2.117-0.248c0.307-0.053,0.571-0.131,0.861-0.194
	c3.564-0.791,5.891-2.371,6.995-4.791l0,0c-19.779-12.141-41.457-18.851-54.876-17.303c-17.546,2.024-34.702,24.218-95.768,32.021
	c58.968,2.058,93.565-15.704,126.736-10.343c1.94,0.314,3.723,0.535,5.425,0.706C493.301,289.55,493.893,289.578,494.508,289.621z"
	/>
<g>
</g>
<g>
</g>
<g>
</g>
<g>
</g>
<g>
</g>
<g>
</g>
<g>
</g>
<g>
</g>
<g>
</g>
<g>
</g>
<g>
</g>
<g>
</g>
<g>
</g>
<g>
</g>
<g>
</g>
</svg>
