<?xml version="1.0"?>
<svg xmlns="http://www.w3.org/2000/svg" xmlns:xlink="http://www.w3.org/1999/xlink" version="1.1" id="Capa_1" x="0px" y="0px" viewBox="0 0 490 490" style="enable-background:new 0 0 490 490;" xml:space="preserve" width="512px" height="512px" class=""><g><path d="M488.502,299.219c-11.059-6.909-23.391-9.612-36.582-10.413c-16.285-0.987-30.094,5.057-32.379,6.961  c-48.521-94.916-108.796-139.369-156.115-157.006c-26.387-12.737,18.42-29.652-9.435-30.553  c-27.856-0.897-31.901,20.219-42.684,22.466c-76.378,2.695-147.06,38.277-171.628,71.886c-16.324,22.332-8.425,38.908-18.608,43.699  c-29.355,16.773-19.47,25.762-19.47,25.762c6.848,10.154,32.688-2.967,50.209-10.604c17.522-7.638,72-22.882,75.931-13.929  c20.218,44.929,59.298,39.054,52.397,32.604c-3.58-3.348-11.339-16.712-14.313-27.664c-4.952-18.238,18.119-17.879,23.877-17.884  c108.262-0.073,205.465,69.665,215.904,77.393c-0.003,0.002-0.009,0.01-0.01,0.011c-3.648,5.825-13.506,38.143,11.854,68.723  c0.623,0.75,1.528,1.15,2.449,1.15c0.534,0,1.073-0.135,1.566-0.413c1.341-0.757,1.948-2.368,1.44-3.823  c-0.411-1.182-9.83-29.208,11.602-53.79c0,0,0,0,0-0.001c14.809-16.882,33.511-19.403,43.343-19.403c5.042,0,8.293,0.646,8.32,0.65  c1.505,0.309,3.024-0.505,3.598-1.937C490.344,301.672,489.809,300.036,488.502,299.219z" data-original="#000100" class="active-path" data-old_color="#6E6E6E" fill="#6C6C6C"/></g> </svg>
